<svg xmlns="http://www.w3.org/2000/svg" width="1600" height="1000" viewBox="0 0 1600 1000" role="img" aria-label="IDPhotoCraft card">
  <defs>
    <linearGradient id="bg" x1="0" y1="0" x2="1" y2="1">
      <stop offset="0%" stop-color="#F5F3FF"/>
      <stop offset="50%" stop-color="#EDE9FE"/>
      <stop offset="100%" stop-color="#7C3AED"/>
    </linearGradient>
    <linearGradient id="icon" x1="0" y1="0" x2="0" y2="1">
      <stop offset="0%" stop-color="#A78BFA"/>
      <stop offset="100%" stop-color="#6D28D9"/>
    </linearGradient>
    <filter id="soft" x="-20%" y="-20%" width="140%" height="140%">
      <feDropShadow dx="0" dy="18" stdDeviation="24" flood-color="#5B21B6" flood-opacity="0.2"/>
    </filter>
  </defs>
  <rect width="1600" height="1000" fill="url(#bg)"/>
  <circle cx="1400" cy="140" r="280" fill="#A78BFA" opacity="0.3"/>
  <circle cx="160" cy="860" r="230" fill="#6D28D9" opacity="0.18"/>
  <circle cx="1200" cy="820" r="150" fill="#FFFFFF" opacity="0.2"/>
  <g filter="url(#soft)">
    <rect x="180" y="250" width="420" height="420" rx="96" fill="#FFFFFF"/>
    <rect x="250" y="320" width="280" height="280" rx="64" fill="url(#icon)"/>
    <rect x="320" y="380" width="140" height="170" rx="18" fill="none" stroke="#FFFFFF" stroke-width="12"/>
    <circle cx="390" cy="440" r="28" fill="#FFFFFF"/>
    <path d="M345 520 Q390 480 435 520 L435 535 L345 535 Z" fill="#FFFFFF"/>
    <path d="M305 365 h30 v30 M475 365 h-30 v30 M305 555 h30 v-30 M475 555 h-30 v-30" fill="none" stroke="#F9A8D4" stroke-width="10" stroke-linecap="round" stroke-linejoin="round"/>
  </g>
  <text x="700" y="410" font-family="Segoe UI, Arial, sans-serif" font-size="84" font-weight="800" fill="#4C1D95">IDPhotoCraft</text>
  <text x="700" y="500" font-family="Segoe UI, Arial, sans-serif" font-size="38" font-weight="600" fill="#6D28D9">Passport photos  ·  on your device</text>
  <text x="700" y="580" font-family="Segoe UI, Arial, sans-serif" font-size="28" fill="#5B21B6" opacity="0.75">Face detect  ·  Background  ·  Print sheets</text>
  <rect x="700" y="650" width="220" height="52" rx="26" fill="#FFFFFF" opacity="0.85"/>
  <text x="810" y="685" font-family="Segoe UI, Arial, sans-serif" font-size="24" font-weight="700" fill="#7C3AED" text-anchor="middle">Android</text>
</svg>
